HIERARCHY
ROOT ui
{
	 OFFSET 0 0 0
	 CHANNELS 3 XPosition YPosition Z Position
	 EndSite
	 {
	 OFFSET 0 -1 0
	 }
}
ROOT li
{
	 OFFSET 0 0 0
	 CHANNELS 3 XPosition YPosition Z Position
	 EndSite
	 {
	 OFFSET 0 -1 0
	 }
}
ROOT ul
{
	 OFFSET 0 0 0
	 CHANNELS 3 XPosition YPosition Z Position
	 EndSite
	 {
	 OFFSET 0 -1 0
	 }
}
ROOT ll
{
	 OFFSET 0 0 0
	 CHANNELS 3 XPosition YPosition Z Position
	 EndSite
	 {
	 OFFSET 0 -1 0
	 }
}
ROOT tt
{
	 OFFSET 0 0 0
	 CHANNELS 3 XPosition YPosition Z Position
	 EndSite
	 {
	 OFFSET 0 -1 0
	 }
}
ROOT tb
{
	 OFFSET 0 0 0
	 CHANNELS 3 XPosition YPosition Z Position
	 EndSite
	 {
	 OFFSET 0 -1 0
	 }
}
ROOT td
{
	 OFFSET 0 0 0
	 CHANNELS 3 XPosition YPosition Z Position
	 EndSite
	 {
	 OFFSET 0 -1 0
	 }
}
ROOT v
{
	 OFFSET 0 0 0
	 CHANNELS 3 XPosition YPosition Z Position
	 EndSite
	 {
	 OFFSET 0 -1 0
	 }
}
ROOT bn
{
	 OFFSET 0 0 0
	 CHANNELS 3 XPosition YPosition Z Position
	 EndSite
	 {
	 OFFSET 0 -1 0
	 }
}
MOTION
Frames: 10
Frame Time: 0.002
0.006175168991088867	-2.234089970588684E-4	0		0.4141435546875	-2.349527587890625	0		-1.145708251953125	0.01643598747253418	0		-0.8347769775390625	-2.33421240234375	0		1.54442431640625	-0.4675417785644531	0		3.12531201171875	0.21557972717285157	0		4.452740234375	0.2879376220703125	0		5.52114208984375	0.21266065979003906	0		-0.38588839721679685	5.8593203125	0		
0.011015392303466797	0.0024115469455718995	0		0.39296087646484373	-2.3414677734375	0		-1.20485791015625	0.020221202850341798	0		-0.8988841552734375	-2.321357666015625	0		1.5172298583984376	-0.4654325866699219	0		3.13097412109375	0.20705015563964843	0		4.4543037109375	0.2734139404296875	0		5.521701171875	0.2117017364501953	0		-0.3706669921875	5.86780224609375	0		
0.021011045455932617	0.011965238571166992	0		0.4475994873046875	-2.3467021484375	0		-1.1329219970703126	0.025768585205078125	0		-0.8350914916992187	-2.317687255859375	0		1.552114013671875	-0.46137796020507815	0		3.140013916015625	0.21847402954101564	0		4.452365234375	0.2859642333984375	0		5.52817431640625	0.23646897888183593	0		-0.36956588745117186	5.86752978515625	0		
0.012688714027404785	0.0018414119482040405	0		0.418327392578125	-2.347485595703125	0		-1.2131641845703125	0.0209356689453125	0		-0.876412109375	-2.321205078125	0		1.5498724365234375	-0.46567584228515624	0		3.13266650390625	0.2061908416748047	0		4.46624169921875	0.2862578430175781	0		5.5258369140625	0.2235686492919922	0		-0.36943267822265624	5.8682841796875	0		
0.013542236328125	0.0015756349563598633	0		0.44502218627929685	-2.35121728515625	0		-1.1423892822265624	0.015516828536987305	0		-0.8397003784179687	-2.324052490234375	0		1.5507054443359376	-0.4660090637207031	0		3.133529052734375	0.2057881317138672	0		4.45686767578125	0.27197119140625	0		5.523490234375	0.2089800720214844	0		-0.36832168579101565	5.86803515625	0		
-0.06364109039306641	6.750620007514954E-4	0		0.3938577880859375	-2.34558642578125	0		-1.20740087890625	0.024455522537231444	0		-0.8749179077148438	-2.321644287109375	0		1.5515255126953125	-0.46632281494140626	0		3.134377197265625	0.20540830993652343	0		4.45771826171875	0.2715361328125	0		5.5240849609375	0.208158447265625	0		-0.36723721313476565	5.8678017578125	0		
0.0151893367767334	0.0010943959951400758	0		0.4485128784179688	-2.349768310546875	0		-1.126725830078125	0.015886539459228514	0		-0.8613077392578125	-2.328065185546875	0		1.5553834228515624	-0.46266754150390627	0		3.1254541015625	0.2202249755859375	0		4.4516416015625	0.2772500915527344	0		5.52047705078125	0.2214080810546875	0		-0.3652164001464844	5.86656787109375	0		
-0.034023975372314455	0.0027502970695495606	0		0.3993347473144531	-2.34112939453125	0		-1.2027781982421875	0.02705195426940918	0		-0.8334966430664063	-2.320715576171875	0		1.556128173828125	-0.46293643188476563	0		3.1359619140625	0.20472697448730467	0		4.46753271484375	0.2836131896972656	0		5.52395654296875	0.23268600463867187	0		-0.3642391052246094	5.86636962890625	0		
0.016657743453979492	6.90201997756958E-4	0		0.4477803649902344	-2.352168212890625	0		-1.1352200927734375	0.017736879348754883	0		-0.834903564453125	-2.322843505859375	0		1.5537498779296874	-0.4671279296875	0		3.140779296875	0.21035838317871094	0		4.4641279296875	0.2763404541015625	0		5.52864990234375	0.21974746704101564	0		-0.36431527709960937	5.8672080078125	0		
-0.03267245864868164	0.0023908679485321045	0		0.42035580444335935	-2.3518642578125	0		-1.1315054931640625	0.021549190521240234	0		-0.8363660278320313	-2.324952392578125	0		1.5543800048828125	-0.4673468017578125	0		3.1414306640625	0.21008985900878907	0		4.46478125	0.27603057861328123	0		5.5291064453125	0.21915968322753906	0		-0.3766593933105469	5.85727734375	0		
